# xmcd
#
# Track frame offsets:
#	151
#	12234
#	29099
#	38848
#	54155
#	71324
#	90303
#	100814
#	119097
#	128014
#	146709
#	155178
#	170813
#
# Disc length: 2501 seconds
#
# Revision: 0
# Processed by: cddbd v1.5.2PL0 Copyright (c) Steve Scherf et al.
# Submitted via: EasyCDDAExtractor 10.0.6.1
#
DISCID=b209c30d
DTITLE=Shady Creek - Sitting On Top Of The World
DYEAR=1900
DGENRE=Bluegrass
TTITLE0=Big Spike Hammer
TTITLE1=Long Black Veil
TTITLE2=Sitting on Top Of The World
TTITLE3=Double Banjo Booie
TTITLE4=East Virginia Blues
TTITLE5=Altar of Prayer
TTITLE6=Nine Pound Hammer
TTITLE7=Last Train For Poor Valley
TTITLE8=How Long Have I Been Waiting
TTITLE9=Bluegrass Medley
TTITLE10=Tested And Tried
TTITLE11=In The Pines
TTITLE12=Man Of Constant Sorrow
EXTD=
EXTT0=
EXTT1=
EXTT2=
EXTT3=
EXTT4=
EXTT5=
EXTT6=
EXTT7=
EXTT8=
EXTT9=
EXTT10=
EXTT11=
EXTT12=
PLAYORDER=
